<svg width="29" height="18" viewBox="0 0 29 18" fill="none" xmlns="http://www.w3.org/2000/svg">
<path d="M26.2 12.2C25.9 13.2 25.4 14.1 24.6 14.9C23.8 15.7 23 16.4 22 16.8C21.1 17.3 20.3 17.5 19.7 17.5H4.2C3.1 17.5 2.2 17.2 1.5 16.6C1.4 16.5 1.4 16.5 1.3 16.4L7.8 12.9L22.6 5L28 2.3C28 2.4 28 2.4 28 2.5C28.4 3.4 28.4 4.5 28 5.9L26.2 12.2ZM22.7 6.7L13.5 13.1H18.3C19 13.1 19.7 12.9 20.3 12.5C20.9 12.1 21.3 11.5 21.6 10.6L22.7 7C22.7 6.9 22.7 6.8 22.7 6.7ZM5.9 10.2L6.9 6.8C7.2 5.8 8.8 4.3 10.4 4.3H14.3H16.5H20.3C20.4 4.3 20.5 4.3 20.5 4.3L26.8 1C26.6 0.9 26.5 0.8 26.3 0.7C25.5 0.3 24.9 0.1 24.3 0.1L8.9 0C8.4 0 7.7 0.2 7 0.5C6.4 0.8 5.7 1.2 5 1.7C4.3 2.2 3.8 2.8 3.2 3.4C2.7 4.1 2.4 4.8 2.2 5.5L0.2 12.1C0 12.9 -0.1 13.7 0.1 14.6C0.1 14.7 0.2 14.9 0.2 15L5.8 12C5.7 11.5 5.7 10.9 5.9 10.2Z" fill="white"></path>
</svg>